<svg width="386" height="180" viewBox="0 0 386 180" fill="none" xmlns="http://www.w3.org/2000/svg">
<rect width="386" height="180" rx="25" fill="#6327FE"/>
<path d="M131.15 47C133.35 47 135.033 47.7856 136.211 49.3439C137.156 50.5802 137.635 52.087 137.635 53.8513C137.635 57.0194 136.574 60.6254 134.438 64.6692C132.574 68.1593 130.243 71.2888 127.447 74.0705C125.609 75.8606 124.172 76.7621 123.124 76.7621C122.437 76.7621 121.79 76.4144 121.208 75.7318C120.78 75.2424 120.573 74.6887 120.573 74.0705C120.573 72.9243 121.57 71.6236 123.577 70.1555C126.399 68.0691 128.638 65.7897 130.321 63.3041C132.781 59.711 134.01 56.6846 134.01 54.1991C134.01 53.1945 133.79 52.4347 133.35 51.9453C132.91 51.4559 132.25 51.2113 131.357 51.2113C129.557 51.2113 126.994 52.512 123.68 55.1263C119.913 58.0626 115.926 62.0549 111.732 67.1161C106.385 73.5425 102.321 79.8658 99.5374 86.099C96.6506 92.564 95.2137 98.0759 95.2137 102.635C95.2137 104.824 95.848 106.679 97.1296 108.211C98.5406 109.937 100.262 110.8 102.295 110.8C105.842 110.8 110.295 108.057 115.667 102.583C117.272 100.922 119.227 98.5009 121.518 95.3457C123.033 93.3238 123.991 91.8814 124.418 91.0443C124.91 90.1042 125.48 89.6277 126.14 89.6277C126.865 89.6277 127.214 89.9754 127.214 90.658C127.214 92.1261 125.376 95.423 121.713 100.549C118.657 104.824 115.305 108.314 111.628 111.019C107.499 114.058 103.589 115.565 99.9257 115.565C96.094 115.565 93.1166 113.852 91.0194 110.426C89.6731 108.237 89 105.751 89 102.944C89 95.8995 92.3399 87.0133 99.0325 76.2727C104.741 67.1419 110.761 59.7883 117.091 54.1991C122.554 49.3954 127.253 47 131.15 47Z" fill="white"/>
<path d="M147.927 78.359C150.62 78.359 151.966 79.9946 151.966 83.2528C151.966 87.5929 149.947 93.092 145.921 99.7372C141.532 106.949 137.286 110.555 133.183 110.555C131.28 110.555 129.895 109.679 129.002 107.915C128.548 107.039 128.315 105.97 128.315 104.734C128.315 100.561 129.752 96.0282 132.639 91.1344C135.332 86.6012 138.49 83.0725 142.128 80.5612C144.251 79.0931 146.18 78.359 147.927 78.359ZM142.814 96.8525C141.999 96.1957 141.584 95.6934 141.584 95.3328C141.584 95.0752 142.102 94.354 143.164 93.1821C146.115 89.8852 147.591 87.2323 147.591 85.2103C147.591 84.9528 147.513 84.6952 147.345 84.4248C147.086 83.9354 146.672 83.6907 146.115 83.6907C145.067 83.6907 143.526 84.7081 141.494 86.73C138.866 89.3443 136.872 92.0359 135.487 94.8048C133.882 97.9729 133.079 100.6 133.079 102.686C133.079 103.24 133.222 103.73 133.519 104.155C133.947 104.747 134.49 105.03 135.138 105.03C136.717 105.03 138.4 103.858 140.199 101.502C140.989 100.523 141.623 99.5183 142.115 98.4623C142.607 97.432 142.84 96.8911 142.814 96.8525Z" fill="white"/>
<path d="M160.367 93.6844C159.383 96.2343 158.645 98.282 158.153 99.8532C157.662 101.424 157.416 102.506 157.416 103.137C157.416 103.949 157.804 104.361 158.594 104.361C159.772 104.361 161.299 103.253 163.163 101.038C164.044 99.9562 165.364 98.0244 167.099 95.2169C167.785 94.1094 168.51 93.5556 169.26 93.5556C170.115 93.5556 170.542 93.9677 170.542 94.7791C170.542 96.1828 168.924 99.0161 165.675 103.292C162.296 107.761 159.163 110.001 156.276 110.001C155.034 110.001 154.011 109.486 153.221 108.43C152.665 107.683 152.38 106.769 152.38 105.687C152.38 103.858 152.937 101.334 154.05 98.1017C155.163 94.8692 156.82 90.9413 159.021 86.305C164.665 74.5341 170.413 64.8238 176.29 57.1869C180.976 51.0567 184.859 47.9916 187.94 47.9916C188.924 47.9916 189.727 48.3651 190.348 49.1121C191.008 49.859 191.332 50.7219 191.332 51.7006C191.332 56.2725 187.228 63.8708 179.034 74.5084C175.358 79.2348 170.969 83.974 165.856 88.7004C164.535 89.9239 162.697 91.5852 160.367 93.6844ZM163.862 85.8929C170.684 80.0847 176.782 72.744 182.154 63.8708C184.937 59.2732 186.335 56.221 186.335 54.7271C186.335 54.0059 186.024 53.6453 185.403 53.6453C183.604 53.6453 180.316 57.2126 175.565 64.3601C171.629 70.2456 167.733 77.4189 163.862 85.8929Z" fill="white"/>
<path d="M188.406 101.849C187.319 103.742 186.257 105.339 185.209 106.64C183.137 109.19 181.092 110.452 179.06 110.452C177.286 110.452 175.914 109.615 174.93 107.954C174.309 106.872 173.998 105.61 173.998 104.142C173.998 100.523 175.15 96.5305 177.441 92.1518C180.005 87.2967 183.086 83.5619 186.684 80.9476C189.04 79.2476 191.319 78.3976 193.519 78.3976C194.892 78.3976 196.044 78.8226 196.963 79.6726C197.752 80.4196 198.141 81.2695 198.141 82.2225C198.141 82.9437 197.856 83.9354 197.299 85.2103C197.791 85.8929 198.037 86.4982 198.037 87.0262C198.037 87.7088 197.584 88.8421 196.665 90.4004C195.707 91.9973 194.762 94.1222 193.817 96.7623C192.794 99.5698 192.29 101.824 192.29 103.511C192.29 104.876 192.704 106.009 193.519 106.885C193.752 107.117 194.426 107.49 195.539 108.005C196.354 108.392 196.769 109.087 196.769 110.066C196.769 110.684 196.536 111.186 196.083 111.585C195.591 112.01 195.021 112.216 194.361 112.216C192.587 112.216 191.06 111.431 189.791 109.873C188.743 108.598 188.212 107.001 188.212 105.082C188.212 104.425 188.277 103.356 188.406 101.849ZM194.555 85.7512C194.167 85.03 193.739 84.502 193.273 84.1672C192.807 83.8195 192.316 83.652 191.798 83.652C189.299 83.652 186.594 85.8156 183.681 90.1557C180.471 94.9464 178.865 99.016 178.865 102.339C178.865 103.15 179.021 103.768 179.331 104.193C179.642 104.618 180.108 104.824 180.73 104.824C182.309 104.824 184.134 103.163 186.231 99.8274C187.409 97.9986 188.872 95.307 190.607 91.7526C191.759 89.4345 192.587 87.9019 193.118 87.155C193.39 86.7815 193.856 86.305 194.555 85.7512Z" fill="white"/>
<path d="M230.931 65.3132C233.132 65.3132 234.814 66.0988 235.992 67.657C236.937 68.8934 237.416 70.4002 237.416 72.1645C237.416 75.3326 236.355 78.9386 234.219 82.9824C232.355 86.4725 230.025 89.6019 227.229 92.3837C225.39 94.1738 223.953 95.0753 222.905 95.0753C222.219 95.0753 221.571 94.7276 220.989 94.045C220.562 93.5556 220.355 93.0018 220.355 92.3837C220.355 91.2375 221.351 89.9368 223.358 88.4686C226.18 86.3823 228.419 84.1028 230.102 81.6173C232.562 78.0242 233.792 74.9978 233.792 72.5122C233.792 71.5077 233.572 70.7479 233.132 70.2585C232.691 69.7691 232.031 69.5244 231.138 69.5244C229.339 69.5244 226.775 70.8252 223.461 73.4395C219.694 76.3758 215.707 80.3681 211.513 85.4293C206.167 91.8557 202.102 98.179 199.319 104.412C196.432 110.877 194.995 116.389 194.995 120.948C194.995 123.137 195.629 124.992 196.911 126.524C198.322 128.25 200.044 129.113 202.076 129.113C205.623 129.113 210.076 126.37 215.448 120.897C217.054 119.235 219.008 116.814 221.3 113.659C222.814 111.637 223.772 110.195 224.199 109.357C224.691 108.417 225.261 107.941 225.921 107.941C226.646 107.941 226.996 108.289 226.996 108.971C226.996 110.439 225.157 113.736 221.494 118.862C218.439 123.137 215.086 126.627 211.409 129.332C207.28 132.371 203.371 133.878 199.707 133.878C195.875 133.878 192.898 132.165 190.801 128.74C189.454 126.55 188.781 124.065 188.781 121.257C188.781 114.213 192.121 105.327 198.814 94.5859C204.523 85.4551 210.542 78.1015 216.872 72.5122C222.335 67.7086 227.021 65.3132 230.931 65.3132Z" fill="white"/>
<path d="M247.696 96.6851C250.389 96.6851 251.735 98.3206 251.735 101.579C251.735 105.919 249.715 111.418 245.689 118.063C241.301 125.275 237.055 128.881 232.951 128.881C231.048 128.881 229.663 128.005 228.77 126.241C228.317 125.365 228.084 124.296 228.084 123.06C228.084 118.888 229.521 114.354 232.408 109.46C235.1 104.927 238.259 101.399 241.897 98.8873C244.032 97.4191 245.961 96.6851 247.696 96.6851ZM242.583 115.179C241.767 114.522 241.353 114.019 241.353 113.659C241.353 113.401 241.871 112.68 242.932 111.508C245.884 108.211 247.359 105.558 247.359 103.536C247.359 103.279 247.282 103.021 247.113 102.751C246.855 102.261 246.44 102.017 245.884 102.017C244.835 102.017 243.295 103.034 241.262 105.056C238.634 107.67 236.641 110.362 235.256 113.131C233.65 116.299 232.848 118.926 232.848 121.012C232.848 121.566 232.99 122.056 233.288 122.481C233.715 123.073 234.259 123.356 234.906 123.356C236.485 123.356 238.168 122.184 239.968 119.828C240.757 118.849 241.392 117.844 241.884 116.788C242.388 115.745 242.621 115.204 242.583 115.179Z" fill="white"/>
<path d="M260.15 111.998C259.166 114.547 258.429 116.595 257.937 118.166C257.445 119.738 257.199 120.819 257.199 121.45C257.199 122.262 257.587 122.674 258.377 122.674C259.555 122.674 261.082 121.566 262.946 119.351C263.827 118.269 265.147 116.338 266.882 113.53C267.568 112.423 268.293 111.869 269.044 111.869C269.898 111.869 270.325 112.281 270.325 113.092C270.325 114.496 268.707 117.329 265.458 121.605C262.079 126.074 258.946 128.315 256.06 128.315C254.817 128.315 253.794 127.799 253.005 126.743C252.448 125.996 252.163 125.082 252.163 124C252.163 122.172 252.72 119.647 253.833 116.415C254.946 113.182 256.603 109.254 258.804 104.618C264.448 92.8473 270.196 83.1369 276.073 75.5C280.759 69.3699 284.643 66.3048 287.724 66.3048C288.707 66.3048 289.51 66.6783 290.131 67.4252C290.792 68.1722 291.115 69.035 291.115 70.0138C291.115 74.5857 287.012 82.1839 278.817 92.8215C275.141 97.5479 270.752 102.287 265.639 107.014C264.306 108.25 262.467 109.911 260.15 111.998ZM263.633 104.219C270.455 98.4108 276.552 91.0701 281.924 82.1968C284.707 77.5992 286.105 74.547 286.105 73.0531C286.105 72.3319 285.795 71.9713 285.173 71.9713C283.374 71.9713 280.086 75.5387 275.335 82.6862C271.413 88.5588 267.503 95.7321 263.633 104.219Z" fill="white"/>
<path d="M288.175 120.162C287.087 122.056 286.026 123.653 284.977 124.953C282.906 127.503 280.861 128.765 278.828 128.765C277.055 128.765 275.682 127.928 274.699 126.267C274.077 125.185 273.767 123.923 273.767 122.455C273.767 118.836 274.919 114.844 277.21 110.465C279.773 105.61 282.854 101.875 286.453 99.2607C288.809 97.5608 291.087 96.7108 293.288 96.7108C294.66 96.7108 295.812 97.1358 296.731 97.9858C297.521 98.7327 297.909 99.5827 297.909 100.536C297.909 101.257 297.625 102.249 297.068 103.524C297.56 104.206 297.806 104.811 297.806 105.339C297.806 106.022 297.353 107.155 296.434 108.714C295.476 110.31 294.531 112.435 293.586 115.075C292.563 117.883 292.058 120.137 292.058 121.824C292.058 123.189 292.472 124.322 293.288 125.198C293.521 125.43 294.194 125.803 295.307 126.318C296.123 126.705 296.537 127.4 296.537 128.379C296.537 128.997 296.304 129.499 295.851 129.899C295.359 130.324 294.79 130.53 294.129 130.53C292.356 130.53 290.828 129.744 289.56 128.186C288.511 126.911 287.98 125.314 287.98 123.395C287.98 122.738 288.045 121.669 288.175 120.162ZM294.324 104.064C293.935 103.343 293.508 102.815 293.042 102.48C292.576 102.133 292.084 101.965 291.566 101.965C289.068 101.965 286.362 104.129 283.45 108.469C280.239 113.26 278.634 117.329 278.634 120.652C278.634 121.463 278.789 122.081 279.1 122.506C279.411 122.931 279.877 123.137 280.498 123.137C282.077 123.137 283.903 121.476 286 118.141C287.178 116.312 288.641 113.62 290.375 110.066C291.527 107.748 292.356 106.215 292.887 105.468C293.159 105.095 293.637 104.618 294.324 104.064Z" fill="white"/>
<path opacity="0.49" d="M33.5375 168.654C41.5663 168.654 48.0749 162.179 48.0749 154.191C48.0749 146.204 41.5663 139.729 33.5375 139.729C25.5086 139.729 19 146.204 19 154.191C19 162.179 25.5086 168.654 33.5375 168.654Z" fill="white"/>
<path opacity="0.49" d="M263.16 172.865C271.188 172.865 277.697 166.39 277.697 158.403C277.697 150.415 271.188 143.94 263.16 143.94C255.131 143.94 248.622 150.415 248.622 158.403C248.622 166.39 255.131 172.865 263.16 172.865Z" fill="white"/>
<path opacity="0.49" d="M66.8455 134.037C70.8635 134.037 74.1207 130.796 74.1207 126.799C74.1207 122.802 70.8635 119.561 66.8455 119.561C62.8275 119.561 59.5703 122.802 59.5703 126.799C59.5703 130.796 62.8275 134.037 66.8455 134.037Z" fill="white"/>
<path opacity="0.49" d="M144.44 158.416C148.458 158.416 151.715 155.175 151.715 151.178C151.715 147.181 148.458 143.94 144.44 143.94C140.422 143.94 137.165 147.181 137.165 151.178C137.165 155.175 140.422 158.416 144.44 158.416Z" fill="white"/>
<path opacity="0.49" d="M318.02 150.045C322.038 150.045 325.296 146.804 325.296 142.807C325.296 138.81 322.038 135.569 318.02 135.569C314.002 135.569 310.745 138.81 310.745 142.807C310.745 146.804 314.002 150.045 318.02 150.045Z" fill="white"/>
<path opacity="0.49" d="M24.7082 109.374C27.089 109.374 29.019 107.454 29.019 105.086C29.019 102.717 27.089 100.797 24.7082 100.797C22.3275 100.797 20.3975 102.717 20.3975 105.086C20.3975 107.454 22.3275 109.374 24.7082 109.374Z" fill="white"/>
<path opacity="0.49" d="M350.683 166.98C353.064 166.98 354.994 165.06 354.994 162.691C354.994 160.323 353.064 158.403 350.683 158.403C348.302 158.403 346.372 160.323 346.372 162.691C346.372 165.06 348.302 166.98 350.683 166.98Z" fill="white"/>
<path opacity="0.49" d="M223.301 147.095C225.682 147.095 227.612 145.175 227.612 142.807C227.612 140.438 225.682 138.518 223.301 138.518C220.92 138.518 218.99 140.438 218.99 142.807C218.99 145.175 220.92 147.095 223.301 147.095Z" fill="white"/>
<path opacity="0.49" d="M363.886 116.921C366.267 116.921 368.197 115.001 368.197 112.633C368.197 110.264 366.267 108.344 363.886 108.344C361.505 108.344 359.575 110.264 359.575 112.633C359.575 115.001 361.505 116.921 363.886 116.921Z" fill="white"/>
<path opacity="0.49" d="M376.276 148.976C377.984 148.976 379.369 147.598 379.369 145.898C379.369 144.198 377.984 142.82 376.276 142.82C374.567 142.82 373.182 144.198 373.182 145.898C373.182 147.598 374.567 148.976 376.276 148.976Z" fill="white"/>
<path opacity="0.49" d="M99.4416 144.043C101.822 144.043 103.752 142.123 103.752 139.755C103.752 137.386 101.822 135.466 99.4416 135.466C97.0608 135.466 95.1309 137.386 95.1309 139.755C95.1309 142.123 97.0608 144.043 99.4416 144.043Z" fill="white"/>
<path opacity="0.49" d="M125.669 124.133C126.856 124.133 127.818 123.176 127.818 121.995C127.818 120.815 126.856 119.857 125.669 119.857C124.483 119.857 123.521 120.815 123.521 121.995C123.521 123.176 124.483 124.133 125.669 124.133Z" fill="white"/>
<path opacity="0.49" d="M57.4223 90.2756C58.6092 90.2756 59.5713 89.3185 59.5713 88.1378C59.5713 86.9571 58.6092 86 57.4223 86C56.2355 86 55.2734 86.9571 55.2734 88.1378C55.2734 89.3185 56.2355 90.2756 57.4223 90.2756Z" fill="white"/>
<path opacity="0.49" d="M180.544 139.755C181.731 139.755 182.693 138.797 182.693 137.617C182.693 136.436 181.731 135.479 180.544 135.479C179.358 135.479 178.396 136.436 178.396 137.617C178.396 138.797 179.358 139.755 180.544 139.755Z" fill="white"/>
<path opacity="0.49" d="M330.086 98.6209C331.273 98.6209 332.235 97.6637 332.235 96.483C332.235 95.3023 331.273 94.3452 330.086 94.3452C328.9 94.3452 327.938 95.3023 327.938 96.483C327.938 97.6637 328.9 98.6209 330.086 98.6209Z" fill="white"/>
</svg>
